<?xml version="1.0" encoding="UTF-8" standalone="no"?>
<svg width="24px" height="19px" viewBox="0 0 24 19" version="1.1" xmlns="http://www.w3.org/2000/svg" xmlns:xlink="http://www.w3.org/1999/xlink">
    <!-- Generator: Sketch 48.1 (47250) - http://www.bohemiancoding.com/sketch -->
    <title>Leaderboard Icon</title>
    <desc>Created with Sketch.</desc>
    <defs></defs>
    <g id="Dash-Copy-18" stroke="none" stroke-width="1" fill="none" fill-rule="evenodd" transform="translate(-1339.000000, -204.000000)" opacity="0.62">
        <g id="Leaderboard-Icon" transform="translate(1339.000000, 204.000000)" fill="#232229">
            <path d="M1,4.28636378 L5.85714286,4.28636378 C6.40942761,4.28636378 6.85714286,4.73407903 6.85714286,5.28636378 L6.85714286,17.8600006 C6.85714286,18.4122854 6.40942761,18.8600006 5.85714286,18.8600006 L1,18.8600006 C0.44771525,18.8600006 6.76353751e-17,18.4122854 0,17.8600006 L0,5.28636378 C-6.76353751e-17,4.73407903 0.44771525,4.28636378 1,4.28636378 Z M5.21651786,10.9469712 L5.21651786,10.0763036 L3.29799107,10.0763036 L3.92745536,9.34963098 C4.26227846,9.01475714 4.50502157,8.7474202 4.65569196,8.54761214 C4.80636236,8.34780408 4.91741036,8.15692885 4.98883929,7.97498073 C5.06026821,7.7930326 5.09598214,7.60606418 5.09598214,7.41406984 C5.09598214,6.95864141 4.95368446,6.60926161 4.66908482,6.36591995 C4.38448518,6.12257829 3.97879728,6.00090929 3.45200893,6.00090929 C3.12388229,6.00090929 2.82701026,6.07234797 2.56138393,6.21522747 C2.2957576,6.35810698 2.08817039,6.5562377 1.93861607,6.80962558 C1.78906175,7.06301345 1.71428571,7.33928023 1.71428571,7.6384342 L2.84598214,7.6384342 C2.84598214,7.41964995 2.89955304,7.23714644 3.00669643,7.0909182 C3.11383982,6.94468995 3.25334735,6.87157693 3.42522321,6.87157693 C3.59933123,6.87157693 3.7321424,6.92627217 3.82366071,7.03566429 C3.91517903,7.14505641 3.9609375,7.30467722 3.9609375,7.51453149 C3.9609375,7.7735006 3.76785907,8.1228804 3.38169643,8.56268139 L1.81473214,10.2102525 L1.81473214,10.9469712 L5.21651786,10.9469712 Z" id="Combined-Shape"></path>
            <path d="M18.1428571,7.7154548 L23,7.7154548 C23.5522847,7.7154548 24,8.16317005 24,8.7154548 L24,17.8600006 C24,18.4122854 23.5522847,18.8600006 23,18.8600006 L18.1428571,18.8600006 C17.5905724,18.8600006 17.1428571,18.4122854 17.1428571,17.8600006 L17.1428571,8.7154548 C17.1428571,8.16317005 17.5905724,7.7154548 18.1428571,7.7154548 Z M20.0290179,11.4660231 L20.0290179,12.3065522 L20.578125,12.3065522 C20.7946439,12.3065522 20.9642851,12.3578988 21.0870536,12.4605934 C21.209822,12.5632881 21.2712054,12.7374199 21.2712054,12.982994 C21.2712054,13.1548959 21.2120542,13.296099 21.09375,13.4066073 C20.9754458,13.5171157 20.8169653,13.572369 20.6183036,13.572369 C20.4419634,13.572369 20.2935274,13.5176738 20.1729911,13.4082817 C20.0524548,13.2988896 19.9921875,13.169407 19.9921875,13.01983 L18.8571429,13.01983 C18.8571429,13.2944265 18.9274547,13.5394389 19.0680804,13.7548744 C19.2087061,13.9703099 19.4157352,14.1388605 19.6891741,14.2605314 C19.962613,14.3822022 20.258927,14.4430367 20.578125,14.4430367 C21.1227706,14.4430367 21.5624983,14.3124378 21.8973214,14.0512363 C22.2321445,13.7900347 22.3995536,13.4417711 22.3995536,13.0064351 C22.3995536,12.7251411 22.3258936,12.4890585 22.1785714,12.2981804 C22.0312493,12.1073023 21.8281263,11.9649831 21.5691964,11.8712184 C21.8147334,11.7551288 22.0016735,11.6038797 22.1300223,11.4174666 C22.2583712,11.2310535 22.3225446,11.0329228 22.3225446,10.8230685 C22.3225446,10.389965 22.1674123,10.0495151 21.8571429,9.80170841 C21.5468734,9.55390177 21.1205384,9.43000031 20.578125,9.43000031 C20.2745521,9.43000031 19.996095,9.48636989 19.7427455,9.59911075 C19.4893961,9.71185161 19.2912954,9.86868184 19.1484375,10.0696061 C19.0055796,10.2705305 18.9341518,10.4993575 18.9341518,10.7560941 L20.0625,10.7560941 C20.0625,10.6266095 20.117745,10.5183353 20.2282366,10.4312681 C20.3387282,10.3442009 20.4687493,10.3006679 20.6183036,10.3006679 C20.8013402,10.3006679 20.9430799,10.3514564 21.0435268,10.4530348 C21.1439737,10.5546132 21.1941964,10.6857701 21.1941964,10.8465096 C21.1941964,11.2595207 20.983261,11.4660231 20.5613839,11.4660231 L20.0290179,11.4660231 Z" id="Combined-Shape"></path>
            <path d="M9.57142857,0 L14.4285714,0 C14.9808562,-1.01453063e-16 15.4285714,0.44771525 15.4285714,1 L15.4285714,17.8600006 C15.4285714,18.4122854 14.9808562,18.8600006 14.4285714,18.8600006 L9.57142857,18.8600006 C9.01914382,18.8600006 8.57142857,18.4122854 8.57142857,17.8600006 L8.57142857,1 C8.57142857,0.44771525 9.01914382,1.01453063e-16 9.57142857,0 Z M12.5290179,6.5902843 L12.5290179,1.71454551 L12.4252232,1.71454551 L10.2857143,2.45461301 L10.2857143,3.31188576 L11.3973214,2.98705976 L11.3973214,6.5902843 L12.5290179,6.5902843 Z" id="Combined-Shape"></path>
        </g>
    </g>
</svg>